<svg width="220" height="54" viewBox="0 0 220 54" fill="none" xmlns="http://www.w3.org/2000/svg">
<g clip-path="url(#clip0_160_727)">
<path d="M0 0V53.9355H45.2295V0H0ZM40.0106 48.7158H5.21889V5.21973H40.0106V48.7158Z" fill="#003595"/>
<path d="M34.7914 10.4394H10.4375V43.496H34.7914V10.4394Z" fill="#76BC21"/>
<path d="M58.7388 20.1915C59.5973 21.0087 60.6142 21.6417 61.7892 22.0905C62.9642 22.5419 64.2456 22.765 65.6281 22.765C67.0107 22.765 68.2583 22.5419 69.4178 22.0905C70.5772 21.6417 71.5863 21.0113 72.4448 20.2019C73.3034 19.395 73.9726 18.4351 74.4551 17.3274C74.9402 16.217 75.1814 15.0133 75.1814 13.7135C75.1814 12.4138 74.9402 11.1919 74.4551 10.0997C73.9726 9.00745 73.3008 8.05275 72.4448 7.23555C71.5863 6.41834 70.5772 5.78533 69.4178 5.33652C68.2583 4.88511 66.9873 4.662 65.6048 4.662C64.2222 4.662 62.972 4.88511 61.8047 5.33652C60.6375 5.78533 59.6207 6.41834 58.7543 7.23555C57.888 8.05275 57.2162 9.01264 56.7415 10.1126C56.2668 11.2126 56.0308 12.4138 56.0308 13.7135C56.0308 15.0133 56.2668 16.2144 56.7415 17.3144C57.2162 18.4144 57.8828 19.3743 58.744 20.1915H58.7388ZM60.5389 11.4383C60.8139 10.756 61.2004 10.1619 61.701 9.66381C62.2016 9.16311 62.78 8.77916 63.4389 8.51194C64.0977 8.24473 64.8188 8.11242 65.6022 8.11242C66.3855 8.11242 67.1118 8.24733 67.7784 8.51194C68.4451 8.77916 69.0235 9.16311 69.5163 9.66381C70.0066 10.1619 70.3905 10.756 70.6654 11.4383C70.9404 12.1232 71.0779 12.8807 71.0779 13.7135C71.0779 14.5463 70.9404 15.3064 70.6654 15.9913C70.3905 16.6736 70.004 17.2677 69.5034 17.7658C69.0054 18.2665 68.4243 18.6505 67.7655 18.9177C67.1066 19.1849 66.3855 19.3172 65.6022 19.3172C64.8188 19.3172 64.0951 19.1849 63.4285 18.9177C62.7593 18.6505 62.1809 18.2665 61.6906 17.7658C61.1978 17.2677 60.8165 16.6684 60.5415 15.9783C60.2666 15.2857 60.1291 14.5333 60.1291 13.7135C60.1291 12.8937 60.2666 12.1232 60.5415 11.4383H60.5389Z" fill="#003595"/>
<path d="M93.5569 4.96027H89.282L84.6907 12.0375H81.7802V4.96027H77.7544V22.4666H81.7802V15.4153H84.5713L89.1289 22.4666H93.7307L87.8372 13.4151L93.5569 4.96027Z" fill="#003595"/>
<path d="M110.245 7.23555C109.387 6.41834 108.378 5.78533 107.218 5.33652C106.059 4.88511 104.788 4.662 103.405 4.662C102.023 4.662 100.772 4.88511 99.605 5.33652C98.4378 5.78533 97.421 6.41834 96.5546 7.23555C95.6883 8.05275 95.0165 9.01264 94.5418 10.1126C94.0671 11.2126 93.8311 12.4138 93.8311 13.7135C93.8311 15.0133 94.0671 16.2144 94.5418 17.3144C95.0165 18.4144 95.6831 19.3743 96.5443 20.1915C97.4028 21.0087 98.4196 21.6417 99.5947 22.0905C100.77 22.5419 102.051 22.765 103.434 22.765C104.816 22.765 106.064 22.5419 107.223 22.0905C108.383 21.6417 109.392 21.0113 110.25 20.2019C111.109 19.395 111.778 18.4351 112.261 17.3274C112.746 16.217 112.987 15.0133 112.987 13.7135C112.987 12.4138 112.746 11.1919 112.261 10.0997C111.778 9.00745 111.106 8.05275 110.25 7.23555H110.245ZM108.468 15.9887C108.193 16.671 107.807 17.2651 107.306 17.7632C106.808 18.2639 106.227 18.6479 105.568 18.9151C104.91 19.1823 104.188 19.3146 103.405 19.3146C102.622 19.3146 101.898 19.1823 101.231 18.9151C100.562 18.6479 99.9837 18.2639 99.4935 17.7632C99.0007 17.2651 98.6194 16.6658 98.3444 15.9757C98.0695 15.2857 97.932 14.5307 97.932 13.7109C97.932 12.8911 98.0695 12.1206 98.3444 11.4357C98.6194 10.7534 99.0058 10.1593 99.5065 9.66122C100.007 9.16052 100.586 8.77656 101.244 8.50935C101.903 8.24214 102.624 8.10983 103.408 8.10983C104.191 8.10983 104.917 8.24473 105.584 8.50935C106.251 8.77656 106.829 9.16052 107.322 9.66122C107.812 10.1593 108.196 10.7534 108.471 11.4357C108.746 12.1206 108.883 12.8781 108.883 13.7109C108.883 14.5437 108.746 15.3038 108.471 15.9887H108.468Z" fill="#003595"/>
<path d="M119.659 15.2882H127.612V22.4666H131.661V4.96027H127.612V11.8611H119.659V4.96027H115.609V22.4666H119.659V15.2882Z" fill="#003595"/>
<path d="M151.59 22.4666V4.96027H147.538V11.8611H139.587V4.96027H135.538V22.4666H139.587V15.2882H147.538V22.4666H151.59Z" fill="#003595"/>
<path d="M176.817 4.96027H172.792V22.4666H176.817V4.96027Z" fill="#003595"/>
<path d="M168.841 12.1257C167.692 11.184 166.058 10.7118 163.941 10.7118H159.49V4.96027H155.464V22.4666H163.366C165.617 22.4666 167.378 21.9503 168.655 20.9152C169.931 19.8827 170.566 18.365 170.566 16.3622C170.566 14.4788 169.991 13.0675 168.841 12.1257ZM165.591 18.6893C164.992 19.2056 164.172 19.465 163.14 19.465H159.49V13.7108H163.14C164.19 13.7108 165.013 13.9236 165.604 14.349C166.196 14.7745 166.491 15.4698 166.491 16.4375C166.491 17.4051 166.19 18.1704 165.591 18.6893Z" fill="#003595"/>
<path d="M192.848 22.4666H196.848V4.96027H193.045L184.695 16.3622V4.96027H180.669V22.4666H184.496L192.848 11.088V22.4666Z" fill="#003595"/>
<path d="M185.081 2.83557C185.857 3.5023 187.076 3.83697 188.744 3.83697C190.412 3.83697 191.61 3.5023 192.394 2.83557C193.177 2.16883 193.576 1.2271 193.595 0.010376H190.819C190.804 0.609659 190.619 1.06366 190.269 1.37238C189.919 1.6811 189.411 1.83417 188.744 1.83417C188.077 1.83417 187.548 1.6811 187.206 1.37238C186.863 1.06366 186.684 0.609659 186.666 0.010376H183.891C183.906 1.2271 184.303 2.16883 185.079 2.83557H185.081Z" fill="#003595"/>
<path d="M73.0031 31.007H68.7283L64.1396 38.0843H61.2265V31.007H57.2007V48.5134H61.2265V41.4595H64.0176L68.5778 48.5134H73.1769L67.2834 39.4619L73.0031 31.007Z" fill="#003595"/>
<path d="M89.6939 33.2823C88.8353 32.4651 87.8263 31.8321 86.6668 31.3833C85.5073 30.9319 84.2363 30.7088 82.8538 30.7088C81.4713 30.7088 80.221 30.9319 79.0538 31.3833C77.8865 31.8321 76.8697 32.4651 76.0034 33.2823C75.137 34.0995 74.4652 35.0594 73.9905 36.1594C73.5158 37.2594 73.2798 38.4605 73.2798 39.7603C73.2798 41.06 73.5158 42.2612 73.9905 43.3612C74.4652 44.4612 75.1318 45.421 75.993 46.2382C76.8516 47.0555 77.8684 47.6885 79.0434 48.1373C80.2184 48.5887 81.4998 48.8118 82.8823 48.8118C84.2649 48.8118 85.5125 48.5887 86.672 48.1373C87.8315 47.6885 88.8405 47.058 89.699 46.2486C90.5576 45.4418 91.2268 44.4819 91.7093 43.3741C92.1944 42.2638 92.4356 41.06 92.4356 39.7603C92.4356 38.4605 92.1944 37.2386 91.7093 36.1464C91.2268 35.0542 90.555 34.0995 89.699 33.2823H89.6939ZM87.9171 42.0355C87.6421 42.7178 87.2556 43.3119 86.755 43.81C86.257 44.3107 85.6759 44.6946 85.0171 44.9619C84.3582 45.2291 83.6372 45.3614 82.8538 45.3614C82.0704 45.3614 81.3468 45.2291 80.6801 44.9619C80.0109 44.6946 79.4325 44.3107 78.9422 43.81C78.4494 43.3119 78.0681 42.7126 77.7931 42.0225C77.5182 41.3298 77.3807 40.5775 77.3807 39.7577C77.3807 38.9379 77.5182 38.1674 77.7931 37.4825C78.0681 36.8002 78.4546 36.2061 78.9552 35.708C79.4558 35.2073 80.0342 34.8233 80.6931 34.5561C81.3519 34.2889 82.073 34.1566 82.8564 34.1566C83.6397 34.1566 84.366 34.2915 85.0327 34.5561C85.6993 34.8233 86.2777 35.2073 86.7706 35.708C87.2608 36.2061 87.6447 36.8002 87.9196 37.4825C88.1946 38.1674 88.3321 38.9249 88.3321 39.7577C88.3321 40.5905 88.1946 41.3506 87.9196 42.0355H87.9171Z" fill="#003595"/>
<path d="M107.058 37.9079H99.1074V31.007H95.0557V48.5134H99.1074V41.3349H107.058V48.5134H111.11V31.007H107.058V37.9079Z" fill="#003595"/>
<path d="M113.184 34.3096H118.761V48.5134H122.761V34.3096H128.361V31.007H113.184V34.3096Z" fill="#003595"/>
<path d="M134.436 42.409V31.007H130.41V48.5134H134.236L142.588 37.1348V48.5134H146.588V31.007H142.788L134.436 42.409Z" fill="#003595"/>
<path d="M162.44 37.9079H154.489V31.007H150.44V48.5134H154.489V41.3349H162.44V48.5134H166.491V31.007H162.44V37.9079Z" fill="#003595"/>
<path d="M174.392 41.2104H182.519V38.0583H174.392V34.2577H183.595V31.007H170.369V48.5134H183.92V45.2627H174.392V41.2104Z" fill="#003595"/>
<path d="M198.697 37.9079H190.744V31.007H186.695V48.5134H190.744V41.3349H198.697V48.5134H202.746V31.007H198.697V37.9079Z" fill="#003595"/>
<path d="M220.001 31.007H204.824V34.3096H210.398V48.5134H214.398V34.3096H220.001V31.007Z" fill="#003595"/>
</g>
<defs>
<clipPath id="clip0_160_727">
<rect width="220" height="53.9355" fill="white"/>
</clipPath>
</defs>
</svg>
