<svg width="97" height="80" viewBox="0 0 97 80" fill="none" xmlns="http://www.w3.org/2000/svg">
<path d="M48.5 16.2109C28.7422 16.2109 14.9844 26.8984 8.67969 33.1094C6.85156 34.9141 3.89844 34.8906 2.07032 33.0859C0.24219 31.2578 0.24219 28.2578 2.09375 26.4297C4.25 24.2969 7.10938 21.7891 10.625 19.2578C21.9922 11.125 35.0938 6.83594 48.5 6.83594C56.5391 6.83594 64.4844 8.38281 72.0078 11.3828L64.6953 18.6953C59.4688 17.0313 54.0547 16.2109 48.5 16.2109ZM48.5 24.5781C33.5938 24.5781 21.8516 32.1484 14.6094 38.5469C12.5703 40.3281 12.4766 43.4688 14.3984 45.3906C16.1328 47.125 18.9453 47.2422 20.7969 45.6016C21.6875 44.8047 22.6719 43.9844 23.7266 43.1875C31.6953 37.0703 40.0156 33.9531 48.4766 33.9531C48.7812 33.9531 49.0859 33.9531 49.3906 33.9766L57.7813 25.5859C54.875 24.9297 51.7578 24.5781 48.5 24.5781ZM48.5 60.7422C43.3203 60.7422 39.125 64.9375 39.125 70.1172C39.125 75.2969 43.3203 79.4922 48.5 79.4922C53.6797 79.4922 57.875 75.2969 57.875 70.1172C57.875 64.9375 53.6797 60.7422 48.5 60.7422ZM27.3828 51.4844C25.7891 52.9375 25.4609 55.2109 26.3516 57.0391L39.2422 44.1484C34.2031 45.9297 30.1719 48.9297 27.3828 51.4844ZM94.9063 26.4297C92.75 24.2969 89.8906 21.7891 86.375 19.2578C85.25 18.4609 84.125 17.7109 82.9766 16.9844L76.1563 23.8047C77.6797 24.6953 79.1797 25.6562 80.6563 26.7109C83.8438 28.9609 86.4219 31.2344 88.3203 33.1094C90.1719 34.9141 93.1016 34.9141 94.9297 33.0859C96.7578 31.2344 96.7578 28.2344 94.9063 26.4297ZM82.3906 38.5469C79.1094 35.6641 74.9375 32.5469 69.9688 29.9688L62.9375 37C66.4297 38.5 69.875 40.5625 73.2734 43.1641C74.3281 43.9844 75.3125 44.8047 76.2031 45.5781C78.0547 47.2187 80.8672 47.1016 82.6016 45.3672C84.5234 43.4688 84.4297 40.3516 82.3906 38.5469ZM56.3047 43.6562L48.0781 51.8828H48.5C54.9453 51.8828 60.1953 55.5625 63.2891 58.3984C65.1406 60.0859 68 60.0156 69.7578 58.2578C71.6328 56.3828 71.5859 53.2891 69.6172 51.4844C66.5703 48.6719 62.0469 45.3672 56.3047 43.6562ZM18.875 77.7578L90.1484 6.48437C91.5313 5.10156 91.5313 2.875 90.1484 1.51562C88.7656 0.132813 86.5391 0.132813 85.1797 1.51562L13.9063 72.7656C12.5234 74.1484 12.5234 76.375 13.9063 77.7344C15.2656 79.1406 17.4922 79.1406 18.875 77.7578Z" fill="#F9326D"/>
</svg>
