<svg width="120" height="100" viewBox="0 0 120 100" fill="none" xmlns="http://www.w3.org/2000/svg">
<g clip-path="url(#clip0_160_963)">
<path d="M105.437 39.2125C93.3873 27.1625 77.3373 20.525 60.2373 20.525C43.1373 20.525 27.0873 27.1625 15.0373 39.2125L0.487305 24.6625C16.4248 8.725 37.6498 -0.0625 60.2498 -0.0625C82.8498 -0.0625 104.062 8.7125 120 24.6625L105.45 39.2125H105.437Z" fill="#003891"/>
<path d="M40.0119 64.1875L25.4619 49.6375C44.6494 30.4625 75.8494 30.4625 95.0244 49.6375L80.4744 64.1875C69.3244 53.0375 51.1744 53.0375 40.0244 64.1875H40.0119Z" fill="#003891"/>
<path d="M60.2375 99.5875C68.6184 99.5875 75.4125 92.7934 75.4125 84.4125C75.4125 76.0316 68.6184 69.2375 60.2375 69.2375C51.8566 69.2375 45.0625 76.0316 45.0625 84.4125C45.0625 92.7934 51.8566 99.5875 60.2375 99.5875Z" fill="#003891"/>
</g>
<defs>
<clipPath id="clip0_160_963">
<rect width="120" height="100" fill="white"/>
</clipPath>
</defs>
</svg>
